<svg xmlns="http://www.w3.org/2000/svg" xmlns:xlink="http://www.w3.org/1999/xlink" width="1577.832" height="439.825" viewBox="0 0 1577.832 439.825"><defs><style>.a,.e,.f{fill:none;}.b{fill:#fff;}.c{fill:rgba(196,214,107,0.12);stroke:#c4d66b;stroke-linecap:round;stroke-width:3px;}.d{clip-path:url(#a);}.e,.f{stroke:#000;}.e{stroke-linejoin:round;stroke-width:2px;}.f{opacity:0.25;}</style><clipPath id="a"><rect class="a" width="1577.832" height="418.829"/></clipPath></defs><rect class="b" width="1577.832" height="419.825" transform="translate(0 0)"/><g transform="translate(0 20.996)"><path class="c" d="M13.677,116.932c73.636,0,50.875,38.139,124.5,38.139,51.024,0,72.51-81.289,116.52-123.924s36.919-46.615,59.52-46.615c73.636,0,78.747,151.889,152.365,151.889s38.675-38.109,112.3-38.109,46.38,72.7,120.016,72.7c36.588,0,69.209-17.753,108.142-48.459,37.815-23.17,73.013-67.912,110.043-67.912,73.627,0,37.608,81.779,111.235,81.779S1080.24,16.685,1153.859,16.685c73.636,0,33.39,105.87,107.009,105.87,38.212,0,57.12-39.855,113.378-47.226s76.524,30.784,111.938,30.784v86.175H13.677Z" transform="translate(38.418 191.484)"/><g class="d"><path class="e" d="M1491.426,157.919H13.677v-320" transform="translate(36.712 226.605)"/><path class="f" d="M0,319.973V0" transform="translate(49.907 64.527)"/><path class="f" d="M0,319.973V0" transform="translate(166.266 64.527)"/><path class="f" d="M0,319.973V0" transform="translate(290.073 64.527)"/><path class="f" d="M0,319.973V0" transform="translate(413.88 64.527)"/><path class="f" d="M0,319.973V0" transform="translate(537.686 64.527)"/><path class="f" d="M0,319.973V0" transform="translate(661.493 64.527)"/><path class="f" d="M0,319.973V0" transform="translate(785.3 64.527)"/><path class="f" d="M0,319.973V0" transform="translate(909.106 64.527)"/><path class="f" d="M0,319.973V0" transform="translate(1032.913 64.527)"/><path class="f" d="M0,319.973V0" transform="translate(1156.719 64.527)"/><path class="f" d="M0,319.973V0" transform="translate(1280.526 64.527)"/><path class="f" d="M0,319.973V0" transform="translate(1404.333 64.527)"/><path class="f" d="M0,319.973V0" transform="translate(1528.139 64.527)"/></g></g></svg>