<svg xmlns="http://www.w3.org/2000/svg" xmlns:xlink="http://www.w3.org/1999/xlink" width="94.121" height="24" viewBox="0 0 94.121 24">
  <defs>
    <clipPath id="clip-path">
      <rect id="Rectangle_2531" data-name="Rectangle 2531" width="13" height="21" transform="translate(0.204 0.16)" fill="#c4d76a"/>
    </clipPath>
    <clipPath id="clip-path-2">
      <path id="Union_1" data-name="Union 1" d="M8.83,21V11.233H0V0H20.113V7.814H26V21Z" transform="translate(-0.045 -0.178)" fill="#fb774e"/>
    </clipPath>
  </defs>
  <g id="Group_5773" data-name="Group 5773" transform="translate(70.796 23309.961)">
    <path id="Path_3" data-name="Path 3" d="M9.206-17.825a11.523,11.523,0,0,0-3.184-.528c-3.111,0-5.185,1.892-5.185,4.785,0,2.856,2.074,4.749,5.149,4.749a11.493,11.493,0,0,0,3.22-.546L8.9-11.949a19.361,19.361,0,0,1-2.62.273,1.871,1.871,0,0,1-2.11-1.892,1.931,1.931,0,0,1,2.165-1.965,16.72,16.72,0,0,1,2.438.273Zm5.2-.546c-3,0-5.112,1.91-5.112,4.749,0,2.893,2.11,4.821,5.112,4.821,2.984,0,5.094-1.929,5.094-4.821C19.5-16.461,17.393-18.371,14.409-18.371Zm0,6.659A1.815,1.815,0,0,1,12.517-13.6a1.806,1.806,0,0,1,1.892-1.856A1.8,1.8,0,0,1,16.283-13.6,1.81,1.81,0,0,1,14.409-11.712Zm10.116-6.6c-2.693,0-4.4,1.874-4.494,4.694,0,3.348,2.4,4.8,4.185,4.8a3.711,3.711,0,0,0,2.456-.837v.564h3.511V-17.88A43.549,43.549,0,0,0,24.525-18.317Zm.691,2.729c.437,0,.819.036,1.455.091v3.147a2.31,2.31,0,0,1-1.51.673,1.782,1.782,0,0,1-1.765-1.91A1.782,1.782,0,0,1,25.216-15.588Zm14.246-2.238a11.523,11.523,0,0,0-3.184-.528c-3.111,0-5.185,1.892-5.185,4.785,0,2.856,2.074,4.749,5.149,4.749a11.493,11.493,0,0,0,3.22-.546l-.309-2.583a19.361,19.361,0,0,1-2.62.273,1.871,1.871,0,0,1-2.11-1.892,1.931,1.931,0,0,1,2.165-1.965,16.72,16.72,0,0,1,2.438.273Zm6.986-.491a24.43,24.43,0,0,0-2.583.146V-22.01h-3.53V-9.093h3.53V-15.06c.764-.073,1.183-.109,1.455-.109.582,0,1.146.273,1.146,1.383v4.694H50v-5.786A3.3,3.3,0,0,0,46.448-18.317Zm4.239,8.678a14.671,14.671,0,0,0,4.439.819c2.529,0,4.039-1.092,4.039-3.057,0-1.856-1.346-2.474-3.075-2.875-1.073-.237-1.674-.218-1.674-.655,0-.309.327-.437.819-.437a13.094,13.094,0,0,1,3.275.673l.564-2.547a15.156,15.156,0,0,0-4-.619c-2.583,0-4.075,1.11-4.075,3.147,0,1.747,1.092,2.365,3.129,2.838.891.2,1.565.237,1.565.655,0,.255-.346.346-.855.346a13.771,13.771,0,0,1-3.511-.8Z" transform="translate(-35.841 -23287.309)" fill="#e5e5e5"/>
    <text id="ONLINE" transform="translate(-26.796 -23287.961)" fill="#e5e5e5" font-size="6" font-family="Canaro-Medium, Canaro" font-weight="500" letter-spacing="0.6em"><tspan x="0" y="0">ONLINE</tspan></text>
    <g id="Mask_Group_6" data-name="Mask Group 6" transform="translate(-71 -23309.121)" clip-path="url(#clip-path)">
      <path id="Subtraction_1" data-name="Subtraction 1" d="M8.5,17A8.5,8.5,0,0,1,2.49,2.49,8.5,8.5,0,1,1,14.51,14.51,8.444,8.444,0,0,1,8.5,17Zm0-13.5a5,5,0,1,0,5,5A5.006,5.006,0,0,0,8.5,3.5Z" transform="translate(3.204 2.16)" fill="#c2d469"/>
    </g>
    <g id="Mask_Group_7" data-name="Mask Group 7" transform="translate(-57.751 -23309.783)" clip-path="url(#clip-path-2)">
      <path id="Subtraction_2" data-name="Subtraction 2" d="M8.5,17A8.5,8.5,0,0,1,2.49,2.49,8.5,8.5,0,1,1,14.51,14.51,8.445,8.445,0,0,1,8.5,17Zm0-13.5a5,5,0,1,0,5,5A5.005,5.005,0,0,0,8.5,3.5Z" transform="translate(0.955 2.822)" fill="#e61b7e"/>
    </g>
  </g>
</svg>
