<svg xmlns="http://www.w3.org/2000/svg" xmlns:xlink="http://www.w3.org/1999/xlink" width="100" height="100" viewBox="0 0 100 100">
  <defs>
    <clipPath id="clip-path">
      <rect id="Rectangle_1331" data-name="Rectangle 1331" width="100" height="100" fill="#fafafa"/>
    </clipPath>
  </defs>
  <g id="Group_346" data-name="Group 346" opacity="0.25" clip-path="url(#clip-path)">
    <path id="Path_317" data-name="Path 317" d="M0,30.894A29.275,29.275,0,0,1,1.71,25.98a12.914,12.914,0,0,1,11.942-6.914q27.439-.085,54.879,0c7.912.03,13.548,5.866,13.559,13.794q.025,16.622,0,33.244v1.043c1.91.6,3.786,1.024,5.531,1.76A19.746,19.746,0,0,1,99.734,89.1,20.149,20.149,0,0,1,83.586,107.07a19.567,19.567,0,0,1-15.842-3.632,3.082,3.082,0,0,0-1.96-.635q-25.928.026-51.857.01c-6.371,0-11.29-3.45-13.234-9.252C.408,92.71.228,91.823,0,90.953ZM76.953,62.081a3.286,3.286,0,0,0,.084-.441q0-14.619-.011-29.239a7.941,7.941,0,0,0-1.681-4.884A8.534,8.534,0,0,0,68.159,24.1q-8.965-.012-17.93,0-18.125,0-36.25,0c-5.24.006-8.905,3.6-8.913,8.753q-.028,18.274,0,36.548c0,.227.05.454.1.918.384-.445.6-.729.853-.983q6.775-6.868,13.558-13.73c1.7-1.72,2.946-1.729,4.634-.032q6.563,6.6,13.114,13.21A6.645,6.645,0,0,1,38,69.828c.485-.575.717-.892.992-1.168Q48.92,58.676,58.86,48.7c1.663-1.669,2.911-1.674,4.579-.018q6.328,6.282,12.651,12.57c.249.247.507.486.863.826m-1.839,5.492L60.938,53.677a6.8,6.8,0,0,1-.612.785q-9.863,9.922-19.739,19.83c-1.739,1.746-3.052,1.74-4.814-.022q-6.516-6.512-13.032-13.025c-.242-.242-.5-.47-.765-.72C16.412,66.091,10.917,71.578,5.445,77.088a1.591,1.591,0,0,0-.369,1.026c-.026,3.7-.086,7.412.024,11.114a10.031,10.031,0,0,0,.845,3.754c1.6,3.527,4.641,4.831,8.31,4.837q23.444.038,46.889.011H62.2c-3.145-6.023-3.89-12.125-1.225-18.37,2.676-6.271,7.531-10.088,14.137-11.886m4.4,4.739a15.045,15.045,0,0,0-15.022,15.08c-.069,8.573,7.414,14.981,15.072,14.918a15,15,0,1,0-.051-30" transform="translate(0 -13.347)"/>
    <path id="Path_318" data-name="Path 318" d="M88.851,74.025c-.356-.341-.614-.579-.863-.826q-6.326-6.284-12.651-12.57c-1.668-1.657-2.916-1.651-4.579.018Q60.818,70.622,50.885,80.6c-.274.276-.506.593-.992,1.168a6.6,6.6,0,0,0-.67-1.043q-6.546-6.616-13.114-13.21c-1.687-1.7-2.933-1.688-4.634.032q-6.782,6.862-13.558,13.73c-.25.254-.469.538-.853.983-.054-.463-.1-.691-.1-.918q-.006-18.274,0-36.548c.008-5.156,3.673-8.747,8.913-8.753q18.125-.02,36.25,0,8.965,0,17.93,0a8.534,8.534,0,0,1,7.186,3.417,7.941,7.941,0,0,1,1.681,4.884q.024,14.62.011,29.239a3.286,3.286,0,0,1-.084.441M49.3,66.5A6.842,6.842,0,1,0,42.7,59.308,6.824,6.824,0,0,0,49.3,66.5" transform="translate(-11.898 -25.291)" fill="#fafafa"/>
    <path id="Path_319" data-name="Path 319" d="M86.965,149.139c-6.607,1.8-11.461,5.614-14.137,11.886-2.666,6.246-1.921,12.348,1.225,18.37H72.995q-23.444,0-46.889-.011c-3.669-.006-6.712-1.31-8.31-4.837a10.029,10.029,0,0,1-.845-3.754c-.109-3.7-.05-7.409-.024-11.113a1.592,1.592,0,0,1,.369-1.026c5.472-5.51,10.967-11,16.531-16.562.266.25.523.478.765.72q6.518,6.512,13.032,13.025c1.762,1.762,3.076,1.768,4.814.022q9.872-9.912,19.739-19.83a6.822,6.822,0,0,0,.612-.785l14.176,13.895" transform="translate(-11.851 -94.913)" fill="#fafafa"/>
    <path id="Path_320" data-name="Path 320" d="M231.281,197.732a15,15,0,1,1,.051,30c-7.658.063-15.141-6.345-15.072-14.918a15.045,15.045,0,0,1,15.022-15.08m2.516,17.516c1.911,0,3.659.016,5.406-.01a3.808,3.808,0,0,0,1.419-.235,2.5,2.5,0,0,0,1.474-2.779,2.575,2.575,0,0,0-2.475-2.083c-1.906-.03-3.812-.008-5.821-.008,0-.454,0-.8,0-1.153,0-1.558.035-3.118-.024-4.674a2.637,2.637,0,0,0-2.066-2.52,2.528,2.528,0,0,0-2.8,1.464,4.716,4.716,0,0,0-.283,1.7c-.035,1.7-.013,3.411-.013,5.179-2.025,0-3.9-.008-5.782,0a2.514,2.514,0,0,0-2.365,1.588,2.1,2.1,0,0,0,.465,2.6,3.967,3.967,0,0,0,2.139.888c1.8.125,3.617.041,5.542.041,0,.451,0,.8,0,1.146,0,1.526-.034,3.053.014,4.577a2.572,2.572,0,0,0,2.842,2.636,2.634,2.634,0,0,0,2.317-2.78c.03-1.814.007-3.628.007-5.579" transform="translate(-151.769 -138.767)" fill="#fff5fb"/>
    <path id="Path_321" data-name="Path 321" d="M109.873,105.985a6.79,6.79,0,0,1-6.592-7.192,6.831,6.831,0,1,1,6.592,7.192" transform="translate(-72.475 -64.777)"/>
    <path id="Path_322" data-name="Path 322" d="M243.122,224.668c0,1.95.024,3.765-.007,5.579a2.634,2.634,0,0,1-2.317,2.78,2.572,2.572,0,0,1-2.842-2.636c-.048-1.524-.013-3.051-.014-4.577,0-.348,0-.7,0-1.146-1.926,0-3.741.084-5.542-.041a3.967,3.967,0,0,1-2.139-.888,2.1,2.1,0,0,1-.465-2.6,2.514,2.514,0,0,1,2.365-1.588c1.878-.011,3.757,0,5.782,0,0-1.768-.022-3.474.013-5.179a4.716,4.716,0,0,1,.283-1.7,2.528,2.528,0,0,1,2.8-1.464,2.637,2.637,0,0,1,2.066,2.52c.059,1.556.021,3.116.024,4.674,0,.349,0,.7,0,1.153,2.009,0,3.915-.022,5.821.008a2.575,2.575,0,0,1,2.475,2.083,2.5,2.5,0,0,1-1.474,2.779,3.808,3.808,0,0,1-1.419.235c-1.747.027-3.495.01-5.406.01" transform="translate(-161.094 -148.188)"/>
  </g>
</svg>
