<!-- <svg xmlns="http://www.w3.org/2000/svg" width="24" height="20"  fill="currentColor" class="bi bi-arrow-left" viewBox="0 0 16 16">
  <path fill-rule="evenodd" d="M15 8a.5.5 0 0 0-.5-.5H2.707l3.147-3.146a.5.5 0 1 0-.708-.708l-4 4a.5.5 0 0 0 0 .708l4 4a.5.5 0 0 0 .708-.708L2.707 8.5H14.5A.5.5 0 0 0 15 8z"/>
</svg> -->

<svg xmlns="http://www.w3.org/2000/svg" width="66" height="40" viewBox="0 0 66 40" fill="none" class="bi bi-arrow-left">
  <rect x="0.5" y="0.5" width="65" height="39" rx="13.5" fill="white" stroke="#C5C5C9" stroke-dasharray="2 2"/>
  <path fill-rule="evenodd" clip-rule="evenodd" d="M15 8a.5.5 0 0 0-.5-.5H2.707l3.147-3.146a.5.5 0 1 0-.708-.708l-4 4a.5.5 0 0 0 0 .708l4 4a.5.5 0 0 0 .708-.708L2.707 8.5H14.5A.5.5 0 0 0 15 8z" fill="#191919"/>
  </svg>
