<svg xmlns="http://www.w3.org/2000/svg" width="58" height="38" viewBox="0 0 58 38">
  <g id="Group_4814" data-name="Group 4814" transform="translate(58.485 37.885) rotate(180)">
    <path id="Polygon_132" data-name="Polygon 132" d="M15.534,6.021a4,4,0,0,1,6.933,0L34.548,27a4,4,0,0,1-3.466,6H6.919a4,4,0,0,1-3.466-6Z" transform="translate(33.485 -0.115) rotate(90)" fill="#f8f8f8"/>
    <path id="Polygon_133" data-name="Polygon 133" d="M15.561,5.793a4,4,0,0,1,6.879,0L34.412,25.958A4,4,0,0,1,30.973,32H7.027a4,4,0,0,1-3.439-6.042Z" transform="translate(58.485 -0.115) rotate(90)" fill="#f8f8f8"/>
  </g>
</svg>
