<svg id="Videos" xmlns="http://www.w3.org/2000/svg" width="25" height="15.625" viewBox="0 0 25 15.625">
  <path id="Path_123" data-name="Path 123" d="M25,.625V15.208a.448.448,0,0,1-.417.417h-.208c-.208,0-.208,0-.417-.208L18.75,10.208v3.958c0,.417-.208.625-.417,1.042a2.234,2.234,0,0,1-1.25.417H1.667a1.591,1.591,0,0,1-1.042-.417C.208,14.792,0,14.583,0,14.167V1.667A1.591,1.591,0,0,1,.417.625,1.485,1.485,0,0,1,1.667,0H17.292a1.591,1.591,0,0,1,1.042.417,2.961,2.961,0,0,1,.417,1.25V5.625L24.167.208c0-.208.208-.208.417-.208C24.792.208,25,.208,25,.625Z" transform="translate(0 0)"/>
</svg>
