<svg xmlns="http://www.w3.org/2000/svg" width="25" height="25" viewBox="0 0 25 25">
  <path id="Path_275" data-name="Path 275" d="M15.156,9.844A3.427,3.427,0,0,1,16.25,12.5a3.659,3.659,0,0,1-1.094,2.656A3.427,3.427,0,0,1,12.5,16.25a3.659,3.659,0,0,1-2.656-1.094A4.243,4.243,0,0,1,8.906,12.5,3.659,3.659,0,0,1,10,9.844,3.427,3.427,0,0,1,12.656,8.75,3.687,3.687,0,0,1,15.156,9.844ZM8.281,15.313a2.221,2.221,0,0,0-.937.313,1.563,1.563,0,0,0,0,1.875,1.321,1.321,0,0,0,.937.312,1.321,1.321,0,0,0,.938-.312,1.321,1.321,0,0,0,.313-.938,2.221,2.221,0,0,0-.312-.937A1.321,1.321,0,0,0,8.281,15.313ZM25,9.844a1.409,1.409,0,0,1-.156.781,62.593,62.593,0,0,1-6.562,7.656,62.593,62.593,0,0,1-7.656,6.562A1.409,1.409,0,0,1,9.844,25c-.312,0-.469-.156-.781-.312L.156,15.781c0-.156-.156-.313-.156-.625a1.409,1.409,0,0,1,.156-.781A100.058,100.058,0,0,1,6.719,6.719,62.593,62.593,0,0,1,14.375.156,1.409,1.409,0,0,1,15.156,0c.312,0,.469.156.781.313l8.906,8.906C24.844,9.375,25,9.531,25,9.844Zm-4.687,2.813a3.831,3.831,0,0,1-.937-2.5A5.136,5.136,0,0,1,20,7.5L17.5,5a5.136,5.136,0,0,1-2.656.625,3.548,3.548,0,0,1-2.5-.938C10.625,6.25,9.219,7.344,8.281,8.281s-2.187,2.344-3.594,4.063a3.831,3.831,0,0,1,.938,2.5A5.136,5.136,0,0,1,5,17.5L7.5,20a5.136,5.136,0,0,1,2.656-.625,3.831,3.831,0,0,1,2.5.938,50.268,50.268,0,0,0,3.906-3.594A33.6,33.6,0,0,0,20.313,12.656Zm-3.75-5.625a2.221,2.221,0,0,0-.937.312,2.221,2.221,0,0,0-.312.938,2.9,2.9,0,0,0,.313,1.094,1.148,1.148,0,0,0,.938.313,2.221,2.221,0,0,0,.938-.312,1.148,1.148,0,0,0,.312-.937A2.221,2.221,0,0,0,17.5,7.5.945.945,0,0,0,16.563,7.031Z"/>
</svg>
