<svg xmlns="http://www.w3.org/2000/svg" width="38.011" height="38.011" viewBox="0 0 38.011 38.011">
  <g id="Allow_Copying" data-name="Allow Copying" transform="translate(0)">
    <g id="Group_8845" data-name="Group 8845" transform="translate(8.622 7.674)">
      <path id="Path_9749" data-name="Path 9749" d="M9.657,26.185h9.97a2.258,2.258,0,0,0,2.257-2.257V11.987A2.258,2.258,0,0,0,19.627,9.73H9.657A2.258,2.258,0,0,0,7.4,11.987V23.93A2.255,2.255,0,0,0,9.657,26.185Z" transform="translate(-7.4 -3.523)" fill="none" stroke="#fff" stroke-linecap="round" stroke-linejoin="round" stroke-width="2"/>
      <path id="Path_9750" data-name="Path 9750" d="M10.15,13.187V9.237A2.258,2.258,0,0,1,12.407,6.98H22.452a2.258,2.258,0,0,1,2.257,2.257V21.18a2.258,2.258,0,0,1-2.257,2.257H18.425" transform="translate(-3.943 -6.98)" fill="none" stroke="#fff" stroke-linecap="round" stroke-linejoin="round" stroke-width="2"/>
    </g>
    <path id="Path_9752" data-name="Path 9752" d="M0,0H38.011V38.011H0Z" transform="translate(0)" fill="none"/>
  </g>
</svg>
