<svg version="1.2" baseProfile="tiny-ps" xmlns="http://www.w3.org/2000/svg" viewBox="0 0 1792 1792" width="1792" height="1792">
	<title>fullscreen-svg</title>
	<style>
		tspan { white-space:pre }
		.shp0 { fill: #ffffff } 
	</style>
	<g id="g2991">
		<path id="path2993" class="shp0" d="M1404.49 531.24L1049.49 886.24L1404.49 1241.24L1548.49 1097.24C1567.82 1076.57 1591.16 1071.9 1618.49 1083.24C1644.49 1094.57 1657.49 1114.24 1657.49 1142.24L1657.49 1590.24C1657.49 1607.57 1651.16 1622.57 1638.49 1635.24C1625.82 1647.9 1610.82 1654.24 1593.49 1654.24L1145.49 1654.24C1117.49 1654.24 1097.82 1640.9 1086.49 1614.24C1075.16 1588.24 1079.82 1565.24 1100.49 1545.24L1244.49 1401.24L889.49 1046.24L534.49 1401.24L678.49 1545.24C699.16 1565.24 703.82 1588.24 692.49 1614.24C681.16 1640.9 661.49 1654.24 633.49 1654.24L185.49 1654.24C168.16 1654.24 153.16 1647.9 140.49 1635.24C127.82 1622.57 121.49 1607.57 121.49 1590.24L121.49 1142.24C121.49 1114.24 134.82 1094.57 161.49 1083.24C187.49 1071.9 210.49 1076.57 230.49 1097.24L374.49 1241.24L729.49 886.24L374.49 531.24L230.49 675.24C217.82 687.9 202.82 694.24 185.49 694.24C177.49 694.24 169.49 692.57 161.49 689.24C134.82 677.9 121.49 658.24 121.49 630.24L121.49 182.24C121.49 164.9 127.82 149.9 140.49 137.24C153.16 124.57 168.16 118.24 185.49 118.24L633.49 118.24C661.49 118.24 681.16 131.57 692.49 158.24C703.82 184.24 699.16 207.24 678.49 227.24L534.49 371.24L889.49 726.24L1244.49 371.24L1100.49 227.24C1079.82 207.24 1075.16 184.24 1086.49 158.24C1097.82 131.57 1117.49 118.24 1145.49 118.24L1593.49 118.24C1610.82 118.24 1625.82 124.57 1638.49 137.24C1651.16 149.9 1657.49 164.9 1657.49 182.24L1657.49 630.24C1657.49 658.24 1644.49 677.9 1618.49 689.24C1609.82 692.57 1601.49 694.24 1593.49 694.24C1576.16 694.24 1561.16 687.9 1548.49 675.24L1404.49 531.24Z" />
	</g>
</svg>