<svg version="1.2" xmlns="http://www.w3.org/2000/svg" viewBox="0 0 1000 1000" width="1000" height="1000">
	<title>heart--filled-svg</title>
	<style>
		.s0 { fill: #E5137D }
	</style>
	<g id="Layer">
		<path id="Layer" fill-rule="evenodd" class="s0" d="m499.5 990.9c-20.9 0-37.7-15.3-59.2-36.8l-366.6-469.7c-31.5-50.7-63.7-109.5-63.7-190.1c0-157.3 114.5-285.2 255.1-285.2c88.2 0 168.8 41.6 234.3 120.9c69.1-79.2 150.1-120.9 235.5-120.9c140.7 0 255.1 127.9 255.1 285.2c0 71.1-19.5 129.6-63.4 189.5l-366.1 468.4c-23.3 23.4-40.1 38.7-61 38.7zm-234.4-941.1c-132.5 0-214.6 126.9-214.6 244.5c0 70 27.9 120.8 56.5 166.9l363.7 466.1c4.5 4.3 23.2 22.9 28.9 22.9c5.7 0 24.4-18.8 30.5-24.8l364.2-466.1c38.6-52.8 55.2-102.3 55.2-165.1c0-117.5-82-244.5-214.5-244.5c-80.4 0-154.5 42.1-220.1 125.2l-16.4 20.8l-15.8-21.3c-42-56.8-113.9-124.6-217.6-124.6z" />
		<path id="Kształt 1" fill-rule="evenodd" class="s0" d="m168.6 59.6c7.7-8.5 14.6-10.6 25-14.9c20.9-8.7 42-11.8 64.6-11.8c18.8 0 45.2-2.9 62.7 4.9c14.1 6.2 24.5 18.4 38.1 25.3c21.9 11.1 45.9 20.5 65.7 35.2c15.2 11.4 28.6 25.9 43 38.3c2.5 2.2 4.7 4.2 6.2 7.3c0.1 0.3 1.7 6 2.1 6c4.3 0.7 8.8-5 13.2-5.7c11.4-1.9 25.8 3 35.9-4.6c14.6-10.9 21.6-32.7 33.4-46.5c13.9-16.2 32.9-30.7 50.1-43.3c33.8-24.9 132.1-34.5 171.7-22.5c36.5 11.1 65.8 34.6 94 58.6c9.9 8.4 27 15.1 34 24.9c14.7 20.5 18.9 46.7 29.9 69.3c7.8 15.9 20.8 35.7 23.6 53.3c3.4 22.4 10.5 74.6 6.5 97.3c-2.2 13-10.7 23.9-14.6 36.3c-4.2 13.4-3.9 27.7-9.5 40.5c-26.4 59.6-69.9 116.3-114 163.8c-11.2 12.2-24.8 21.6-36.1 33.7c-25 26.6-47.2 55.9-71.8 82.8c-9.4 10.3-21.2 18.6-30.2 29.3c-20.7 24.7-31.3 56.9-48.6 83.8c-8.9 14-24.4 19.5-33.6 33.5c-10.4 16.1-16.4 33.7-30.3 47.6c-5.7 5.6-13.9 1.5-18.9 5.4c-5.5 4.3-3.6 19.6-7.4 26c-2.9 4.9-37.6 43-40.3 44.6c-16.4 10.2-34.8-19.1-42.5-28.3c-16.6-19.8-39.9-36.3-58.7-53.9c-5.4-5.1-32.4-49-35.8-55.9c-7.7-15.8-14.3-43.2-25.3-55.4c-10.9-12-34.5-16.5-43.5-26.7c-5-5.7-13.8-42.3-14.7-43.1c-10.6-9.3-26.8-12.7-38.3-21.3c-8.7-6.5-13.8-23.6-19.8-32.5c-8.4-12.6-19.4-22.9-28.5-34.9c-4.6-6.1-7.2-13.4-12-19.3c-12-14.5-33-19.4-44.5-34.9c-6.2-8.3-2.2-23.1-8-30.1c-10-12-24.9-21.6-33.2-34.5c-6.3-9.8-7.7-22.2-13-32.5c-4.3-8.2-12.3-13.2-17-21c-4.4-7.2-4.6-16.7-7.3-24.6c-8.2-24.1-21.6-47.2-26.5-72.4c-5.9-29.7-1.6-39.9 2.8-67.9c2.3-14.9 0.6-30.3 4.3-44.9c8.8-34.7 26-67.2 41.8-99c12-24 33-30 54.1-45c3.6-2.6 20-18.9 21.2-20.3z" />
		<path id="Kształt 2" fill-rule="evenodd" class="s0" d="m336.7 735.1c6.7 0 14-0.7 20.6 0.7c18 4 18.9 21.2 17.9 36.1c-0.6 8.4-1.5 19.4-9.7 24.3c-2.9 1.7-6.3 1.5-9.5 1.3c-21.6-1-25.4-27.3-25.4-44c0-4.7 4.9-18.4 6.1-18.4z" />
		<path id="Kształt 3" fill-rule="evenodd" class="s0" d="m299.2 667.5c4.2 4.6 10.4 8.9 13.4 14.4c2.4 4.3 1.8 10.3 1.4 15c-0.3 4.4-1.2 8.6-2.9 12.7c-4.3 9.8-17.8 8.3-24.4 1.5c-6.1-6.3-6.6-14.8-5.3-23.1c0.4-3.4 2.6-12.5 7-12.5" />
		<path id="Kształt 4" fill-rule="evenodd" class="s0" d="m700.2 688.7c4.4-2.4 7.9-0.7 6.4 4.3c-2.2 7.1-5.4 15.1-8.9 21.7c-0.9 1.6-1.9 3.4-2.8 5c-1.6 2.8-3.2 5.6-5 8.3c-2.4 3.6-6.8 10.8-12.3 8.1c-5.5-2.8-1.4-13.3 0.3-17c3.7-8.2 6.1-17.5 12.5-24.1c2.5-2.6 8.7-5.7 9.8-6.3z" />
	</g>
</svg>
