<?xml version="1.0" encoding="utf-8"?>
<!-- Svg Vector Icons : http://www.onlinewebfonts.com/icon -->
<!DOCTYPE svg PUBLIC "-//W3C//DTD SVG 1.1//EN" "http://www.w3.org/Graphics/SVG/1.1/DTD/svg11.dtd">

<svg version="1.1" xmlns="http://www.w3.org/2000/svg" xmlns:xlink="http://www.w3.org/1999/xlink"
     x="0px" y="0px" viewBox="0 0 1000 1000" enable-background="new 0 0 1000 1000"
     xml:space="preserve">
<metadata> Svg Vector Icons : http://www.onlinewebfonts.com/icon </metadata>
<g><path class="s0" d="M499.5,990.9c-20.9,0-37.7-15.3-59.2-36.8L73.7,484.4C42.2,433.7,10,374.9,10,294.3C10,137,124.5,9.1,265.1,9.1c88.2,0,168.8,41.6,234.3,120.9C568.5,50.8,649.5,9.1,734.9,9.1C875.6,9.1,990,137,990,294.3c0,71.1-19.5,129.6-63.4,189.5L560.5,952.2C537.2,975.6,520.4,990.9,499.5,990.9z M265.1,49.8c-132.5,0-214.6,126.9-214.6,244.5c0,70,27.9,120.8,56.5,166.9l363.7,466.1c4.5,4.3,23.2,22.9,28.9,22.9c5.7,0,24.4-18.8,30.5-24.8l364.2-466.1c38.6-52.8,55.2-102.3,55.2-165.1c0-117.5-82-244.5-214.5-244.5c-80.4,0-154.5,42.1-220.1,125.2l-16.4,20.8l-15.8-21.3C440.7,117.6,368.8,49.8,265.1,49.8z"/></g>
</svg>
