<svg width="40" height="40" viewBox="0 0 40 40" fill="none" xmlns="http://www.w3.org/2000/svg">
<g id="Instagram">
<path id="Subtract" fill-rule="evenodd" clip-rule="evenodd" d="M0 20C0 8.9543 8.9543 0 20 0C31.0457 0 40 8.9543 40 20C40 31.0457 31.0457 40 20 40C8.9543 40 0 31.0457 0 20ZM20 8.33333C16.8313 8.33333 16.4347 8.34656 15.1902 8.40333C13.9481 8.46011 13.0996 8.65767 12.3576 8.94622C11.5798 9.23867 10.8743 9.69756 10.291 10.2918C9.69773 10.8744 9.23856 11.5794 8.94544 12.3576C8.65844 13.0996 8.46011 13.9489 8.40333 15.191C8.34733 16.4347 8.33333 16.8306 8.33333 20C8.33333 23.1694 8.34656 23.5653 8.40333 24.8098C8.46011 26.0519 8.65767 26.9004 8.94622 27.6424C9.23867 28.4202 9.69756 29.1257 10.2918 29.709C10.8745 30.3023 11.5794 30.7614 12.3576 31.0546C13.0996 31.3423 13.9481 31.5399 15.1902 31.5967C16.4347 31.6534 16.8313 31.6667 20 31.6667C23.1687 31.6667 23.5653 31.6534 24.8098 31.5967C26.0519 31.5399 26.9004 31.3423 27.6424 31.0538C28.4202 30.7613 29.1257 30.3024 29.709 29.7082C30.3023 29.1256 30.7614 28.4206 31.0546 27.6424C31.3423 26.9004 31.5399 26.0519 31.5967 24.8098C31.6534 23.5653 31.6667 23.1687 31.6667 20C31.6667 16.8313 31.6534 16.4347 31.5967 15.1902C31.5399 13.9481 31.3423 13.0996 31.0538 12.3576C30.7609 11.579 30.3017 10.8738 29.7082 10.291C29.1256 9.69773 28.4206 9.23856 27.6424 8.94544C26.9004 8.65844 26.0511 8.46011 24.809 8.40333C23.5653 8.34733 23.1694 8.33333 20 8.33333ZM20 10.4357C23.115 10.4357 23.4844 10.4473 24.7149 10.5033C25.852 10.5554 26.4696 10.7444 26.881 10.9054C27.4254 11.1162 27.8143 11.3698 28.2227 11.7773C28.631 12.1857 28.8838 12.5746 29.0946 13.119C29.2548 13.5304 29.4446 14.148 29.4967 15.2851C29.5527 16.5156 29.5643 16.885 29.5643 20C29.5643 23.115 29.5527 23.4844 29.4967 24.7149C29.4446 25.852 29.2556 26.4696 29.0946 26.881C28.9078 27.3878 28.6099 27.8462 28.2227 28.2227C27.8463 28.61 27.3878 28.9079 26.881 29.0946C26.4696 29.2548 25.852 29.4446 24.7149 29.4967C23.4844 29.5527 23.1158 29.5643 20 29.5643C16.8842 29.5643 16.5156 29.5527 15.2851 29.4967C14.148 29.4446 13.5304 29.2556 13.119 29.0946C12.6122 28.9078 12.1538 28.6099 11.7773 28.2227C11.3901 27.8462 11.0922 27.3877 10.9054 26.881C10.7452 26.4696 10.5554 25.852 10.5033 24.7149C10.4473 23.4844 10.4357 23.115 10.4357 20C10.4357 16.885 10.4473 16.5156 10.5033 15.2851C10.5554 14.148 10.7444 13.5304 10.9054 13.119C11.1162 12.5746 11.3698 12.1857 11.7773 11.7773C12.1537 11.39 12.6122 11.0921 13.119 10.9054C13.5304 10.7452 14.148 10.5554 15.2851 10.5033C16.5156 10.4473 16.885 10.4357 20 10.4357ZM18.5409 23.4662C18.9993 23.6591 19.4906 23.7584 19.9867 23.7584C20.9888 23.7584 21.9498 23.354 22.6583 22.634C23.3668 21.914 23.7649 20.9375 23.7649 19.9193C23.7649 18.9011 23.3668 17.9247 22.6583 17.2047C21.9498 16.4847 20.9888 16.0802 19.9867 16.0802C19.4906 16.0802 18.9993 16.1795 18.5409 16.3725C18.0825 16.5654 17.666 16.8482 17.3152 17.2047C16.9644 17.5612 16.6861 17.9844 16.4962 18.4502C16.3063 18.916 16.2086 19.4152 16.2086 19.9193C16.2086 20.4235 16.3063 20.9227 16.4962 21.3885C16.6861 21.8543 16.9644 22.2775 17.3152 22.634C17.666 22.9905 18.0825 23.2733 18.5409 23.4662ZM15.8713 15.7375C16.9628 14.6284 18.4432 14.0053 19.9867 14.0053C21.5303 14.0053 23.0107 14.6284 24.1022 15.7375C25.1936 16.8466 25.8068 18.3509 25.8068 19.9193C25.8068 21.4878 25.1936 22.9921 24.1022 24.1012C23.0107 25.2103 21.5303 25.8333 19.9867 25.8333C18.4432 25.8333 16.9628 25.2103 15.8713 24.1012C14.7799 22.9921 14.1667 21.4878 14.1667 19.9193C14.1667 18.3509 14.7799 16.8466 15.8713 15.7375ZM27.0971 14.8865C27.3551 14.6243 27.5 14.2687 27.5 13.898C27.5 13.5272 27.3551 13.1716 27.0971 12.9095C26.839 12.6473 26.4891 12.5 26.1242 12.5C25.7594 12.5 25.4094 12.6473 25.1514 12.9095C24.8934 13.1716 24.7485 13.5272 24.7485 13.898C24.7485 14.2687 24.8934 14.6243 25.1514 14.8865C25.4094 15.1486 25.7594 15.2959 26.1242 15.2959C26.4891 15.2959 26.839 15.1486 27.0971 14.8865Z" fill="black"/>
</g>
</svg>
