<svg id="Instagram" xmlns="http://www.w3.org/2000/svg" width="24" height="24" viewBox="0 0 24 24">
  <path id="Path_10" data-name="Path 10" d="M7.5,3H16.5A4.5,4.5,0,0,1,21,7.5V16.5A4.5,4.5,0,0,1,16.5,21H7.5A4.5,4.5,0,0,1,3,16.5V7.5A4.5,4.5,0,0,1,7.5,3Z" fill="none" stroke="#fff" stroke-linecap="round" stroke-linejoin="round" stroke-width="1.5" fill-rule="evenodd"/>
  <path id="Path_11" data-name="Path 11" d="M16.949,6.713a.338.338,0,1,0,.338.338.339.339,0,0,0-.338-.338" fill="none" stroke="#fff" stroke-linecap="round" stroke-linejoin="round" stroke-width="1.5"/>
  <path id="Path_12" data-name="Path 12" d="M14.546,9.454a3.6,3.6,0,1,1-5.091,0,3.6,3.6,0,0,1,5.091,0" fill="none" stroke="#fff" stroke-linecap="round" stroke-linejoin="round" stroke-width="1.5" fill-rule="evenodd"/>
  <path id="Path_13" data-name="Path 13" d="M0,0H24V24H0Z" transform="translate(0 24) rotate(-90)" fill="none"/>
</svg>
