<svg id="Linkedin" xmlns="http://www.w3.org/2000/svg" width="24" height="24" viewBox="0 0 24 24">
  <path id="Path_18" data-name="Path 18" d="M7.5,3h9A4.5,4.5,0,0,1,21,7.5V16.5A4.5,4.5,0,0,1,16.5,21H7.5A4.5,4.5,0,0,1,3,16.5v-9A4.5,4.5,0,0,1,7.5,3Z" fill="none" stroke="#fff" stroke-linecap="round" stroke-linejoin="round" stroke-width="1.5" fill-rule="evenodd"/>
  <path id="Path_19" data-name="Path 19" d="M8.12,11.1v5.4" fill="none" stroke="#fff" stroke-linecap="round" stroke-linejoin="round" stroke-width="1.5"/>
  <g id="Group_4891" data-name="Group 4891">
    <path id="Path_20" data-name="Path 20" d="M11.719,16.5V13.35a2.25,2.25,0,0,1,2.25-2.25h0a2.25,2.25,0,0,1,2.25,2.25V16.5" fill="none" stroke="#fff" stroke-linecap="round" stroke-linejoin="round" stroke-width="1.5"/>
    <path id="Path_21" data-name="Path 21" d="M8.118,7.838a.225.225,0,1,0,.226.225.224.224,0,0,0-.226-.225" fill="none" stroke="#fff" stroke-linecap="round" stroke-linejoin="round" stroke-width="1.5"/>
  </g>
  <path id="Path_22" data-name="Path 22" d="M0,0H24V24H0Z" transform="translate(0 24) rotate(-90)" fill="none"/>
</svg>
