<svg xmlns="http://www.w3.org/2000/svg" xmlns:xlink="http://www.w3.org/1999/xlink" width="86" height="86" viewBox="0 0 86 86">
  <defs>
    <clipPath id="clip-path">
      <rect id="Rectangle_4017" data-name="Rectangle 4017" width="86" height="86" transform="translate(-0.009 -0.009)" fill="none" stroke="#fff" stroke-width="1"/>
    </clipPath>
  </defs>
  <g id="Group_5714" data-name="Group 5714" transform="translate(0.009 0.009)">
    <path id="Path_7861" data-name="Path 7861" d="M0,0V25.039" transform="translate(71.651 21.533)" fill="none" stroke="#fff" stroke-linecap="round" stroke-width="2.5"/>
    <line id="Line_240" data-name="Line 240" x1="21" transform="translate(53.991 67.991)" fill="none" stroke="#fff" stroke-linecap="round" stroke-linejoin="round" stroke-width="2.5"/>
    <path id="Path_7858" data-name="Path 7858" d="M19,17l7.165,7.165L19,31.33" transform="translate(49.068 43.903)" fill="none" stroke="#fff" stroke-linecap="round" stroke-linejoin="round" stroke-width="2.5"/>
    <g id="Group_5713" data-name="Group 5713">
      <g id="Group_5712" data-name="Group 5712" clip-path="url(#clip-path)">
        <path id="Path_7859" data-name="Path 7859" d="M31.66,45.382h-21.5A7.168,7.168,0,0,1,3,38.217V6.01" transform="translate(7.748 15.521)" fill="none" stroke="#fff" stroke-linecap="round" stroke-linejoin="round" stroke-width="2.5"/>
        <path id="Path_7860" data-name="Path 7860" d="M10.2,4H56.7A7.2,7.2,0,0,1,60.74,17.166L41.552,30.174a14.442,14.442,0,0,1-16.2,0l-19.188-13A7.2,7.2,0,0,1,10.2,4Z" transform="translate(7.748 10.33)" fill="none" stroke="#fff" stroke-linecap="round" stroke-linejoin="round" stroke-width="2.5"/>
      </g>
    </g>
  </g>
</svg>
