<svg id="Group_862" data-name="Group 862" xmlns="http://www.w3.org/2000/svg" xmlns:xlink="http://www.w3.org/1999/xlink" width="25" height="25" viewBox="0 0 25 25">
  <defs>
    <clipPath id="clip-path">
      <rect id="Rectangle_1647" data-name="Rectangle 1647" width="25" height="25" fill="none"/>
    </clipPath>
  </defs>
  <g id="Group_861" data-name="Group 861" clip-path="url(#clip-path)">
    <path id="Path_502" data-name="Path 502" d="M24.958,0h7.617c-.183.031-.366.064-.55.093A6.77,6.77,0,1,0,39.609,8.7c.13-.45.2-.919.29-1.38V25H33.454a.153.153,0,0,1,.041-.026,2.622,2.622,0,0,0,2.242-2.858q0-2.563,0-5.126c0-.277.009-.554,0-.83a.519.519,0,0,0-.522-.533.528.528,0,0,0-.521.536c-.005.073,0,.146,0,.22q0,2.942,0,5.883a1.571,1.571,0,0,1-1.708,1.7H17.647a1.583,1.583,0,0,1-1.71-1.7q0-9.765,0-19.529a2.107,2.107,0,0,1,.068-.554,1.559,1.559,0,0,1,1.6-1.138q3.479,0,6.957,0c.1,0,.2,0,.293-.008a.471.471,0,0,0,.427-.349A.494.494,0,0,0,25.13.128C25.076.082,25.015.042,24.958,0M23.237,18.74c0,.846,0,1.692,0,2.538a.524.524,0,0,0,.6.6c.651,0,1.3,0,1.952,0a1.56,1.56,0,0,0,1.606-1.6q.007-1.525,0-3.051a1.558,1.558,0,0,0-1.61-1.6c-.643,0-1.285,0-1.928,0-.439,0-.621.182-.622.625,0,.83,0,1.66,0,2.489M19.06,19.783c.4,0,.767.011,1.131,0a2.065,2.065,0,0,0,1.985-1.862,2.023,2.023,0,0,0-1.69-2.24,14.184,14.184,0,0,0-2-.044.49.49,0,0,0-.465.531c0,1.724-.009,3.449.01,5.173a.663.663,0,0,0,.26.455.5.5,0,0,0,.762-.456c.011-.5,0-1.006,0-1.555M29.487,18.75c0-.495,0-.964,0-1.433s.18-.652.647-.654c.626,0,1.252,0,1.878,0a.523.523,0,1,0,0-1.036q-.963,0-1.927,0a1.565,1.565,0,0,0-1.643,1.64c-.006,1.325,0,2.651,0,3.976a1.008,1.008,0,0,0,.027.241.508.508,0,0,0,.5.39.5.5,0,0,0,.5-.391,1.71,1.71,0,0,0,.028-.363c0-.436,0-.872,0-1.332h.3c.748,0,1.5,0,2.244,0a.526.526,0,0,0,.58-.521.532.532,0,0,0-.59-.514c-.626,0-1.252,0-1.878,0Z" transform="translate(-14.899)" fill="#fff"/>
    <path id="Path_503" data-name="Path 503" d="M10.059,0c.058.042.118.082.172.128a.494.494,0,0,1,.155.553.471.471,0,0,1-.427.349c-.1.01-.195.008-.293.008q-3.479,0-6.957,0a1.559,1.559,0,0,0-1.6,1.138,2.112,2.112,0,0,0-.068.554q0,9.765,0,19.529a1.583,1.583,0,0,0,1.71,1.7H18.079a1.571,1.571,0,0,0,1.708-1.7q0-2.942,0-5.883c0-.073,0-.147,0-.22a.528.528,0,0,1,.521-.536.519.519,0,0,1,.522.533c.013.276,0,.553,0,.83q0,2.563,0,5.126A2.622,2.622,0,0,1,18.6,24.974a.153.153,0,0,0-.041.026H2.246c-.052-.017-.1-.038-.155-.051a2.6,2.6,0,0,1-1.964-1.76c-.05-.143-.085-.29-.127-.435V2.246a.94.94,0,0,0,.047-.131A2.446,2.446,0,0,1,1.164.451,7.142,7.142,0,0,1,2.246,0Z"/>
    <path id="Path_504" data-name="Path 504" d="M189.435,7.324c-.1.46-.16.929-.291,1.38A6.768,6.768,0,1,1,181.561.093c.184-.029.367-.062.55-.093h1.123a1.112,1.112,0,0,0,.161.042,6.764,6.764,0,0,1,5.789,4.922c.111.4.168.824.25,1.237Zm-6.922-6.282a5.731,5.731,0,1,0,5.879,5.577,5.738,5.738,0,0,0-5.879-5.577" transform="translate(-164.435)"/>
    <path id="Path_505" data-name="Path 505" d="M294.951,6.2c-.082-.413-.139-.832-.25-1.237A6.764,6.764,0,0,0,288.911.042,1.114,1.114,0,0,1,288.75,0h6.2Z" transform="translate(-269.951)" fill="#fff"/>
    <path id="Path_506" data-name="Path 506" d="M0,349.5c.042.145.078.293.127.435a2.6,2.6,0,0,0,1.964,1.76c.053.013.1.034.155.051H0Z" transform="translate(0 -326.746)" fill="#fff"/>
    <path id="Path_507" data-name="Path 507" d="M2.246,0A7.142,7.142,0,0,0,1.164.451,2.446,2.446,0,0,0,.047,2.115.94.94,0,0,1,0,2.246V0Z" fill="#fff"/>
    <path id="Path_508" data-name="Path 508" d="M128.054,243.1c0-.83,0-1.659,0-2.489,0-.443.183-.624.622-.625.643,0,1.285,0,1.928,0a1.558,1.558,0,0,1,1.611,1.6q.008,1.525,0,3.051a1.56,1.56,0,0,1-1.606,1.6c-.651,0-1.3,0-1.952,0a.524.524,0,0,1-.6-.6c0-.846,0-1.692,0-2.538m1.044,2.092c.543,0,1.062.014,1.579-.005a.511.511,0,0,0,.5-.579q.008-1.5,0-3a.535.535,0,0,0-.6-.585c-.268-.006-.537,0-.8,0H129.1Z" transform="translate(-119.716 -224.357)"/>
    <path id="Path_509" data-name="Path 509" d="M49.019,244.11c0,.548.008,1.052,0,1.555a.5.5,0,0,1-.762.456.663.663,0,0,1-.26-.455c-.018-1.724-.013-3.448-.01-5.173a.49.49,0,0,1,.465-.531,14.174,14.174,0,0,1,2,.044,2.023,2.023,0,0,1,1.69,2.24,2.065,2.065,0,0,1-1.985,1.862c-.364.013-.729,0-1.131,0m.013-1.037c.393,0,.759.016,1.123,0a1.035,1.035,0,0,0,.946-.9.979.979,0,0,0-.693-1.1,9.66,9.66,0,0,0-1.376-.1Z" transform="translate(-44.857 -224.327)"/>
    <path id="Path_510" data-name="Path 510" d="M208.965,243.109h.652c.626,0,1.252,0,1.878,0a.532.532,0,0,1,.59.514.526.526,0,0,1-.58.521c-.748,0-1.5,0-2.244,0h-.3c0,.46,0,.9,0,1.332a1.71,1.71,0,0,1-.028.363.5.5,0,0,1-.5.391.508.508,0,0,1-.5-.39,1.008,1.008,0,0,1-.027-.241c0-1.325-.006-2.651,0-3.976a1.565,1.565,0,0,1,1.643-1.64q.964,0,1.927,0a.523.523,0,1,1,0,1.036c-.626,0-1.252,0-1.878,0-.466,0-.645.183-.647.654s0,.939,0,1.433" transform="translate(-194.377 -224.359)"/>
    <path id="Path_511" data-name="Path 511" d="M197.576,15.949a5.731,5.731,0,1,1-5.574,6,5.74,5.74,0,0,1,5.574-6m.672,5.208c0-.872,0-1.709,0-2.546a.528.528,0,0,0-.525-.578.518.518,0,0,0-.51.565c-.005.61,0,1.22,0,1.83,0,.234,0,.468,0,.729h-.285q-1.11,0-2.22,0c-.381,0-.61.191-.616.507-.007.333.215.529.614.53.74,0,1.48,0,2.22,0h.288v.294q0,1.061,0,2.123c0,.475.166.7.512.705s.525-.233.525-.7q0-1.073,0-2.147v-.278h.3q1.086,0,2.171,0c.416,0,.657-.193.655-.519s-.247-.517-.659-.518h-2.465Z" transform="translate(-179.498 -14.907)" fill="#fff"/>
    <path id="Path_512" data-name="Path 512" d="M144.1,260.085v-4.17h.675c.268,0,.537,0,.8,0a.535.535,0,0,1,.6.585q.01,1.5,0,3a.511.511,0,0,1-.5.579c-.518.019-1.037.005-1.579.005" transform="translate(-134.718 -239.252)" fill="#fff"/>
    <path id="Path_513" data-name="Path 513" d="M64.111,257.652v-2.11a9.66,9.66,0,0,1,1.376.1.979.979,0,0,1,.693,1.1,1.035,1.035,0,0,1-.946.9c-.364.02-.731,0-1.123,0" transform="translate(-59.937 -238.905)" fill="#fff"/>
    <path id="Path_514" data-name="Path 514" d="M228.272,51.148h2.465c.412,0,.658.195.659.518s-.24.518-.655.519q-1.086,0-2.171,0h-.3v.278q0,1.073,0,2.147c0,.463-.178.7-.525.7s-.512-.23-.512-.705q0-1.061,0-2.123v-.294h-.288c-.74,0-1.48,0-2.22,0-.4,0-.621-.2-.614-.53.007-.316.235-.506.616-.507q1.11,0,2.22,0h.285c0-.261,0-.5,0-.729,0-.61,0-1.22,0-1.83a.518.518,0,0,1,.51-.565.528.528,0,0,1,.525.578c0,.837,0,1.674,0,2.546" transform="translate(-209.522 -44.898)"/>
  </g>
</svg>
