<svg xmlns="http://www.w3.org/2000/svg" width="25.828" height="25.828" viewBox="0 0 25.828 25.828">
  <g id="Group_User" data-name="Group, User" transform="translate(0)">
    <g id="Group_8858" data-name="Group 8858" transform="translate(2.152 5.381)">
      <path id="Path_9763" data-name="Path 9763" d="M2,19.3H2A4.3,4.3,0,0,1,6.3,15h4.3a4.3,4.3,0,0,1,4.3,4.3h0" transform="translate(-2 -4.238)" fill="none" stroke="#c2d469" stroke-linecap="round" stroke-linejoin="round" stroke-width="2"/>
      <path id="Path_9764" data-name="Path 9764" d="M10.93,6.1A3.767,3.767,0,1,1,5.6,6.1a3.767,3.767,0,0,1,5.327,0" transform="translate(-1.81 -5)" fill="none" stroke="#c2d469" stroke-linecap="round" stroke-linejoin="round" stroke-width="2"/>
      <path id="Path_9765" data-name="Path 9765" d="M16,14h3.229a3.228,3.228,0,0,1,3.229,3.229h0" transform="translate(-0.933 -4.314)" fill="none" stroke="#c2d469" stroke-linecap="round" stroke-linejoin="round" stroke-width="2"/>
      <path id="Path_9766" data-name="Path 9766" d="M19.593,6.788a2.69,2.69,0,1,1-3.8,0,2.69,2.69,0,0,1,3.8,0" transform="translate(-1.01 -4.924)" fill="none" stroke="#c2d469" stroke-linecap="round" stroke-linejoin="round" stroke-width="2"/>
    </g>
    <path id="Path_9767" data-name="Path 9767" d="M0,0H25.828V25.828H0Z" transform="translate(0)" fill="none"/>
  </g>
</svg>
