<svg id="share.2" xmlns="http://www.w3.org/2000/svg" width="34.843" height="34.843" viewBox="0 0 34.843 34.843">
  <g id="Group_8844" data-name="Group 8844" transform="translate(8.711 5.875)">
    <path id="Path_9743" data-name="Path 9743" d="M15.364,7.52,9.47,11.933" transform="translate(-4.432 -2.478)" fill="none" stroke="#fff" stroke-linecap="round" stroke-linejoin="round" stroke-width="2"/>
    <path id="Path_9744" data-name="Path 9744" d="M17.972,4.911a2.95,2.95,0,1,1-4.172,0,2.95,2.95,0,0,1,4.172,0" transform="translate(-2.867 -4.047)" fill="none" stroke="#fff" stroke-linecap="round" stroke-linejoin="round" stroke-width="2"/>
    <path id="Path_9745" data-name="Path 9745" d="M15.364,17.853,9.47,13.44" transform="translate(-4.432 0.197)" fill="none" stroke="#fff" stroke-linecap="round" stroke-linejoin="round" stroke-width="2"/>
    <path id="Path_9746" data-name="Path 9746" d="M17.972,16.753a2.95,2.95,0,1,1-4.172,0,2.95,2.95,0,0,1,4.172,0" transform="translate(-2.867 1.303)" fill="none" stroke="#fff" stroke-linecap="round" stroke-linejoin="round" stroke-width="2"/>
    <path id="Path_9747" data-name="Path 9747" d="M11.031,10.833a2.947,2.947,0,1,1-4.168,0,2.947,2.947,0,0,1,4.168,0" transform="translate(-6 -1.371)" fill="none" stroke="#fff" stroke-linecap="round" stroke-linejoin="round" stroke-width="2"/>
  </g>
  <path id="Path_9748" data-name="Path 9748" d="M0,0H34.843V34.843H0Z" transform="translate(0)" fill="none"/>
</svg>
