<svg id="Group_5633" data-name="Group 5633" xmlns="http://www.w3.org/2000/svg" xmlns:xlink="http://www.w3.org/1999/xlink" width="38" height="38" viewBox="0 0 38 38">
  <defs>
    <clipPath id="clip-path">
      <rect id="Rectangle_3964" data-name="Rectangle 3964" width="38" height="38" fill="none" stroke="#fff" stroke-width="1"/>
    </clipPath>
  </defs>
  <g id="Group_5632" data-name="Group 5632" clip-path="url(#clip-path)">
    <path id="Path_7850" data-name="Path 7850" d="M5.16,7A14.179,14.179,0,0,1,7.633,4.722" transform="translate(3.01 2.755)" fill="none" stroke="#fff" stroke-linecap="round" stroke-linejoin="round" stroke-width="1.5"/>
    <path id="Path_7851" data-name="Path 7851" d="M21.445,19.482A14.241,14.241,0,0,1,9.38,21.268" transform="translate(5.472 11.365)" fill="none" stroke="#fff" stroke-linecap="round" stroke-linejoin="round" stroke-width="1.5"/>
    <path id="Path_7852" data-name="Path 7852" d="M8,21.333A14.256,14.256,0,0,1,3.523,15" transform="translate(2.055 8.75)" fill="none" stroke="#fff" stroke-linecap="round" stroke-linejoin="round" stroke-width="1.5"/>
    <path id="Path_7853" data-name="Path 7853" d="M3.828,9A14.18,14.18,0,0,0,3,13.75" transform="translate(1.75 5.25)" fill="none" stroke="#fff" stroke-linecap="round" stroke-linejoin="round" stroke-width="1.5"/>
    <path id="Path_7854" data-name="Path 7854" d="M23.816,25.167A14.112,14.112,0,0,0,26.25,17.25,14.248,14.248,0,0,0,12,3" transform="translate(7 1.75)" fill="none" stroke="#fff" stroke-linecap="round" stroke-linejoin="round" stroke-width="1.5"/>
    <path id="Path_7855" data-name="Path 7855" d="M11.922,9.182l5.849,3.46a1.287,1.287,0,0,1,0,2.217l-5.85,3.46a1.287,1.287,0,0,1-1.943-1.108V10.29A1.288,1.288,0,0,1,11.922,9.182Z" transform="translate(5.82 5.25)" fill="none" stroke="#fff" stroke-linecap="round" stroke-linejoin="round" stroke-width="1.5"/>
  </g>
</svg>
