<svg xmlns="http://www.w3.org/2000/svg" width="22.04" height="17.058" viewBox="0 0 22.04 17.058">
  <g id="Group_4809" data-name="Group 4809" transform="translate(0.5 0.705)">
    <path id="Path_5413" data-name="Path 5413" d="M6.238,9.013H3.607A1.107,1.107,0,0,0,2.5,10.12v5.26a1.107,1.107,0,0,0,1.107,1.107h2.63l4.407,3.733a1.108,1.108,0,0,0,1.823-.846V6.125a1.108,1.108,0,0,0-1.823-.845Z" transform="translate(-2.5 -4.927)" fill="none" stroke="#f5f5f5" stroke-linecap="round" stroke-linejoin="round" stroke-width="1"/>
    <path id="Path_5414" data-name="Path 5414" d="M15.537,16.833a5.133,5.133,0,0,0,2.174-4.4,5.17,5.17,0,0,0-2.174-4.412" transform="translate(-1.102 -4.604)" fill="none" stroke="#f5f5f5" stroke-linecap="round" stroke-linejoin="round" stroke-width="1"/>
    <path id="Path_5415" data-name="Path 5415" d="M18.506,20.583a10.3,10.3,0,0,0,3.317-7.821A10.3,10.3,0,0,0,18.5,4.935" transform="translate(-0.782 -4.935)" fill="none" stroke="#f5f5f5" stroke-linecap="round" stroke-linejoin="round" stroke-width="1"/>
  </g>
</svg>
