<svg id="Money_Banknote_Withdraw" data-name="Money, Banknote, Withdraw" xmlns="http://www.w3.org/2000/svg" width="34.11" height="34.11" viewBox="0 0 34.11 34.11">
  <g id="Group_8846" data-name="Group 8846" transform="translate(4.264 4.264)">
    <path id="Path_9753" data-name="Path 9753" d="M14.852,7.833a2.842,2.842,0,1,1-4.019,0,2.842,2.842,0,0,1,4.019,0" transform="translate(-0.051 -1.315)" fill="none" stroke="#c2d469" stroke-linecap="round" stroke-linejoin="round" stroke-width="2"/>
    <path id="Path_9754" data-name="Path 9754" d="M6.5,7v5.685" transform="translate(-1.526 -1.315)" fill="none" stroke="#c2d469" stroke-linecap="round" stroke-linejoin="round" stroke-width="2"/>
    <path id="Path_9755" data-name="Path 9755" d="M17.5,7v5.685" transform="translate(3.108 -1.315)" fill="none" stroke="#c2d469" stroke-linecap="round" stroke-linejoin="round" stroke-width="2"/>
    <line id="Line_278" data-name="Line 278" y2="7" transform="translate(12.206 18.271)" fill="none" stroke="#c2d469" stroke-linecap="round" stroke-linejoin="round" stroke-width="2"/>
    <line id="Line_279" data-name="Line 279" y1="2" x2="3" transform="translate(12.206 23.271)" fill="none" stroke="#c2d469" stroke-linecap="round" stroke-linejoin="round" stroke-width="2"/>
    <line id="Line_280" data-name="Line 280" x2="3" y2="2" transform="translate(9.206 23.271)" fill="none" stroke="#c2d469" stroke-linecap="round" stroke-linejoin="round" stroke-width="2"/>
    <path id="Path_9756" data-name="Path 9756" d="M10.106,20.055H5.843A2.842,2.842,0,0,1,3,17.213V5.843A2.842,2.842,0,0,1,5.843,3h19.9a2.842,2.842,0,0,1,2.843,2.843v11.37a2.842,2.842,0,0,1-2.843,2.843H21.476" transform="translate(-3 -3)" fill="none" stroke="#c2d469" stroke-linecap="round" stroke-linejoin="round" stroke-width="2"/>
  </g>
  <path id="Path_9757" data-name="Path 9757" d="M0,0H34.11V34.11H0Z" fill="none"/>
</svg>
